# xmcd
#
# Track frame offsets:
#	150
#	19065
#	40195
#	55946
#	77070
#	94307
#	105947
#	119888
#	139283
#	160248
#	176183
#
# Disc length: 2612 seconds
#
# Revision: 0
# Processed by: cddbd v1.4PL0 Copyright (c) Steve Scherf et al.
# Submitted via: dBpowerAMP V4.0
#
DISCID=950a320b
DTITLE=Jon Butcher - A Long Way Home
DYEAR=2000
DGENRE=Blues
TTITLE0=Resurrection
TTITLE1=Language of Love
TTITLE2=Run with the Wind
TTITLE3=Do What I Wanna Do
TTITLE4=Hungry
TTITLE5=Think Twice
TTITLE6=Behind Green Eyes
TTITLE7=Frustrated
TTITLE8=Have Mercy
TTITLE9=Wishes (Live Acoustic Version)
TTITLE10=Mule Driver
EXTD=Kore Group Records
EXTT0=
EXTT1=
EXTT2=
EXTT3=
EXTT4=
EXTT5=
EXTT6=
EXTT7=
EXTT8=
EXTT9=
EXTT10=
PLAYORDER=
